<svg xmlns="http://www.w3.org/2000/svg" viewBox="0 0 3282.8 811.26"><g id="Layer_2" data-name="Layer 2"><g id="Craft_Cellars" data-name="Craft Cellars"><path d="M76.29,498.44c-24.57,0-43.57-6.14-56.5-18.23C6.66,467.94,0,449.84,0,426.4V393.67c0-25.48,7.15-44.47,21.24-56.42,13.85-11.79,35.27-17.52,65.47-17.52h45.8a128.25,128.25,0,0,1,31.56,3.53,67.11,67.11,0,0,1,24.5,11.43c13.71,10.57,20.67,26.28,20.67,46.65v16.1H163.69V382.22c0-10.88-4.11-13.89-5.48-14.89l-.07-.05c-2.61-2-9.63-5.22-27.24-5.22H81.13c-13.23,0-22.57,2.5-27,7.22s-6.93,13.84-6.93,26.16v28.47c0,12,2.92,20.34,8.67,24.65,6.58,4.94,18.28,7.55,33.82,7.55h41.4c12.85,0,22.67-2.15,28.39-6.22,3-2.14,7-6.12,7-15.85V418.39H212v16.53c0,20.83-6.25,36.91-18.58,47.78-12,10.59-31.18,15.74-58.59,15.74Z" fill="#fff"/><path d="M76.29,498.44c-24.57,0-43.57-6.14-56.5-18.23C6.66,467.94,0,449.84,0,426.4V393.67c0-25.48,7.15-44.47,21.24-56.42,13.85-11.79,35.27-17.52,65.47-17.52h45.8a128.25,128.25,0,0,1,31.56,3.53,67.11,67.11,0,0,1,24.5,11.43c13.71,10.57,20.67,26.28,20.67,46.65v16.1H163.69V382.22c0-10.88-4.11-13.89-5.48-14.89l-.07-.05c-2.61-2-9.63-5.22-27.24-5.22H81.13c-13.23,0-22.57,2.5-27,7.22s-6.93,13.84-6.93,26.16v28.47c0,12,2.92,20.34,8.67,24.65,6.58,4.94,18.28,7.55,33.82,7.55h41.4c12.85,0,22.67-2.15,28.39-6.22,3-2.14,7-6.12,7-15.85V418.39H212v16.53c0,20.83-6.25,36.91-18.58,47.78-12,10.59-31.18,15.74-58.59,15.74Z" fill="#fff"/><path d="M231.81,496.08v-174h45.54v6.36c.49-.29,1-.57,1.49-.84,9.56-5.23,21.68-7.87,36-7.87h24.22c26.31,0,44.65,4.9,56.07,15C406.9,345,412.86,361.3,412.86,383.1v29.6H367.31V394.26c0-20.3-4.28-25.62-5.6-26.76-1-.91-7.65-5.44-35.56-5.44h-16.3c-11,0-19,2.39-23.84,7.1s-7,11.14-7,20v107Z" fill="#fff"/><path d="M231.81,496.08v-174h45.54v6.36c.49-.29,1-.57,1.49-.84,9.56-5.23,21.68-7.87,36-7.87h24.22c26.31,0,44.65,4.9,56.07,15C406.9,345,412.86,361.3,412.86,383.1v29.6H367.31V394.26c0-20.3-4.28-25.62-5.6-26.76-1-.91-7.65-5.44-35.56-5.44h-16.3c-11,0-19,2.39-23.84,7.1s-7,11.14-7,20v107Z" fill="#fff"/><path d="M473.39,498.44c-19.75,0-34.62-4.79-44.19-14.24l0-.05c-9.58-9.57-14.43-23.72-14.43-42V433c0-18,5.85-31.21,17.4-39.37a43.07,43.07,0,0,1,11.6-5.6h-22.1V369.59a50.1,50.1,0,0,1,4.52-21.67,41.89,41.89,0,0,1,13.94-16.4c11.25-7.93,29.39-11.78,55.47-11.78h43.31c32.21,0,54.43,4.67,68,14.29,14.49,10.2,21.83,27.75,21.83,52.16V496.08H581.5v-2.43a34,34,0,0,1-3.76,1.29c-8.27,2.35-20.16,3.5-36.37,3.5Zm21.88-73.7c-22.14,0-28.61,2.73-30.06,3.56-.83.48-3.32,1.92-3.32,9.7v5.43c0,7,2.4,8.42,3.44,9,2.29,1.37,8.29,3.65,22.74,3.65H532c27.24,0,38.83-2.25,43.75-4.13s5.78-4.19,5.78-7.81v-6.46c0-5.4-2-7.34-5.16-8.71l-.09,0c-3.56-1.58-13.34-4.22-38.71-4.22ZM540,382.42c16.46,0,29.36,2,39.43,6.07.69.28,1.37.57,2,.87v-6.85c0-11.92-4.32-14.54-5.74-15.4-3.11-1.89-12-5.06-36.45-5.06H496.88c-19.56,0-24.55,2.67-25.35,3.21s-2.74,1.82-2.74,8.3v9.86c7.57-.67,16.17-1,25.89-1Z" fill="#fff"/><path d="M473.39,498.44c-19.75,0-34.62-4.79-44.19-14.24l0-.05c-9.58-9.57-14.43-23.72-14.43-42V433c0-18,5.85-31.21,17.4-39.37a43.07,43.07,0,0,1,11.6-5.6h-22.1V369.59a50.1,50.1,0,0,1,4.52-21.67,41.89,41.89,0,0,1,13.94-16.4c11.25-7.93,29.39-11.78,55.47-11.78h43.31c32.21,0,54.43,4.67,68,14.29,14.49,10.2,21.83,27.75,21.83,52.16V496.08H581.5v-2.43a34,34,0,0,1-3.76,1.29c-8.27,2.35-20.16,3.5-36.37,3.5Zm21.88-73.7c-22.14,0-28.61,2.73-30.06,3.56-.83.48-3.32,1.92-3.32,9.7v5.43c0,7,2.4,8.42,3.44,9,2.29,1.37,8.29,3.65,22.74,3.65H532c27.24,0,38.83-2.25,43.75-4.13s5.78-4.19,5.78-7.81v-6.46c0-5.4-2-7.34-5.16-8.71l-.09,0c-3.56-1.58-13.34-4.22-38.71-4.22ZM540,382.42c16.46,0,29.36,2,39.43,6.07.69.28,1.37.57,2,.87v-6.85c0-11.92-4.32-14.54-5.74-15.4-3.11-1.89-12-5.06-36.45-5.06H496.88c-19.56,0-24.55,2.67-25.35,3.21s-2.74,1.82-2.74,8.3v9.86c7.57-.67,16.17-1,25.89-1Z" fill="#fff"/><path d="M928.55,404.29V426.7c0,21-4,25.15-4.31,25.46-3.3,1.82-10.18,3.95-24.38,3.95h-9c-13.58,0-19.86-2.82-22.73-5.19-1.61-1.33-5.37-6.13-5.37-21.73V364.4H966.16V322.09H862.81V286.85H815.65v35.24H718.06v-8c0-9.79,2.87-15.46,17.52-15.46h55.3V256.32H732.5c-19.9,0-35.33,5.52-45.88,16.43s-15.71,26.59-15.71,46.93v2.41H638V364.4h32.9V496.08h47.15V364.4h97.59V438c0,20.29,6.3,35.75,18.73,46l.08.07c12,9.69,29.55,14.4,53.51,14.4h13.5c22.38,0,38.88-4.08,50.47-12.47,6.6-4.8,11.53-11.76,14.68-20.69,2.81-8,4.24-17.8,4.24-29.19v-31.8Z" fill="#fff"/><path d="M928.55,404.29V426.7c0,21-4,25.15-4.31,25.46-3.3,1.82-10.18,3.95-24.38,3.95h-9c-13.58,0-19.86-2.82-22.73-5.19-1.61-1.33-5.37-6.13-5.37-21.73V364.4H966.16V322.09H862.81V286.85H815.65v35.24H718.06v-8c0-9.79,2.87-15.46,17.52-15.46h55.3V256.32H732.5c-19.9,0-35.33,5.52-45.88,16.43s-15.71,26.59-15.71,46.93v2.41H638V364.4h32.9V496.08h47.15V364.4h97.59V438c0,20.29,6.3,35.75,18.73,46l.08.07c12,9.69,29.55,14.4,53.51,14.4h13.5c22.38,0,38.88-4.08,50.47-12.47,6.6-4.8,11.53-11.76,14.68-20.69,2.81-8,4.24-17.8,4.24-29.19v-31.8Z" fill="#fff"/><path d="M1512.7,498.44c-24.56,0-43.58-6.14-56.49-18.23-13.13-12.27-19.79-30.37-19.79-53.81V393.67c0-25.48,7.15-44.47,21.23-56.42,13.86-11.79,35.28-17.52,65.47-17.52h45.81a128.22,128.22,0,0,1,31.56,3.52,67.36,67.36,0,0,1,24.5,11.44c13.71,10.57,20.66,26.27,20.66,46.65v16.1h-45.54V382.22c0-10.89-4.12-13.9-5.47-14.9l-.08,0c-2.61-2-9.64-5.22-27.25-5.22h-49.76c-13.22,0-22.58,2.5-27,7.22s-6.93,13.84-6.93,26.15v28.48c0,12,2.92,20.34,8.65,24.64,6.6,4.95,18.29,7.56,33.84,7.56h41.39c12.86,0,22.67-2.15,28.4-6.22,3-2.14,7-6.12,7-15.85V418.39h45.54v16.53c0,20.82-6.25,36.89-18.58,47.78-12,10.59-31.18,15.74-58.58,15.74Z" fill="#fff"/><path d="M1512.7,498.44c-24.56,0-43.58-6.14-56.49-18.23-13.13-12.27-19.79-30.37-19.79-53.81V393.67c0-25.48,7.15-44.47,21.23-56.42,13.86-11.79,35.28-17.52,65.47-17.52h45.81a128.22,128.22,0,0,1,31.56,3.52,67.36,67.36,0,0,1,24.5,11.44c13.71,10.57,20.66,26.27,20.66,46.65v16.1h-45.54V382.22c0-10.89-4.12-13.9-5.47-14.9l-.08,0c-2.61-2-9.64-5.22-27.25-5.22h-49.76c-13.22,0-22.58,2.5-27,7.22s-6.93,13.84-6.93,26.15v28.48c0,12,2.92,20.34,8.65,24.64,6.6,4.95,18.29,7.56,33.84,7.56h41.39c12.86,0,22.67-2.15,28.4-6.22,3-2.14,7-6.12,7-15.85V418.39h45.54v16.53c0,20.82-6.25,36.89-18.58,47.78-12,10.59-31.18,15.74-58.58,15.74Z" fill="#fff"/><path d="M1742.3,498.44c-13.58,0-25.58-1.36-35.65-4-10.74-2.86-19.69-7.3-26.62-13.21l0,0c-13.75-11.85-20.72-30.72-20.72-56.07V393.38c0-23.86,6.63-42.3,19.72-54.82,6.7-6.46,15.46-11.31,26-14.42,9.9-2.93,21.7-4.4,35.09-4.4h49c14.27,0,26.93,1.44,37.63,4.28,11.32,3,20.84,7.67,28.31,13.86,15.14,12.44,22.82,32.3,22.82,59v27.54H1706.44c.09,12,3,19.87,8.81,24.17,4.77,3.43,15.91,7.5,41.88,7.5h42.73c16.7,0,23.06-2.82,25.37-4.51,1.26-.94,5-3.79,5.53-13.68l.49-10.13h46.65v14a51.73,51.73,0,0,1-6.09,25.26,49.44,49.44,0,0,1-18.11,18.33c-14.53,8.76-35,13-62.66,13Zm88.4-116.31c-.34-6.27-2.75-10.52-7.69-13.68-6.58-4.18-17.72-6.39-32.25-6.39h-45.37c-25.75,0-31.59,5.61-32.79,7.38a37,37,0,0,0-5.14,12.69Z" fill="#fff"/><path d="M1742.3,498.44c-13.58,0-25.58-1.36-35.65-4-10.74-2.86-19.69-7.3-26.62-13.21l0,0c-13.75-11.85-20.72-30.72-20.72-56.07V393.38c0-23.86,6.63-42.3,19.72-54.82,6.7-6.46,15.46-11.31,26-14.42,9.9-2.93,21.7-4.4,35.09-4.4h49c14.27,0,26.93,1.44,37.63,4.28,11.32,3,20.84,7.67,28.31,13.86,15.14,12.44,22.82,32.3,22.82,59v27.54H1706.44c.09,12,3,19.87,8.81,24.17,4.77,3.43,15.91,7.5,41.88,7.5h42.73c16.7,0,23.06-2.82,25.37-4.51,1.26-.94,5-3.79,5.53-13.68l.49-10.13h46.65v14a51.73,51.73,0,0,1-6.09,25.26,49.44,49.44,0,0,1-18.11,18.33c-14.53,8.76-35,13-62.66,13Zm88.4-116.31c-.34-6.27-2.75-10.52-7.69-13.68-6.58-4.18-17.72-6.39-32.25-6.39h-45.37c-25.75,0-31.59,5.61-32.79,7.38a37,37,0,0,0-5.14,12.69Z" fill="#fff"/><rect x="1899.88" y="256.32" width="47.16" height="239.76" fill="#fff"/><rect x="1899.88" y="256.32" width="47.16" height="239.76" fill="#fff"/><rect x="1981.65" y="256.32" width="47.16" height="239.76" fill="#fff"/><rect x="1981.65" y="256.32" width="47.16" height="239.76" fill="#fff"/><path d="M2110.35,498.44c-19.76,0-34.62-4.8-44.2-14.24l0-.05c-9.57-9.56-14.44-23.71-14.44-42V433c0-18,5.86-31.21,17.42-39.37a42.78,42.78,0,0,1,11.58-5.6h-22.1V369.59a50.1,50.1,0,0,1,4.52-21.67,41.93,41.93,0,0,1,13.95-16.4c11.25-7.93,29.39-11.78,55.47-11.78h43.31c32.21,0,54.44,4.67,68,14.29,14.49,10.2,21.83,27.75,21.83,52.15v109.9h-47.15v-2.44a37.93,37.93,0,0,1-3.76,1.3c-8.27,2.35-20.17,3.5-36.38,3.5Zm21.87-73.71c-22.14,0-28.6,2.73-30.07,3.57-.81.48-3.31,1.91-3.31,9.7v5.43c0,7,2.49,8.47,3.43,9,2.31,1.37,8.3,3.65,22.75,3.65h43.9c27.25,0,38.82-2.25,43.74-4.13s5.8-4.19,5.8-7.81v-6.46c0-5.4-2-7.34-5.17-8.71l-.1,0c-3.56-1.58-13.32-4.23-38.69-4.23ZM2177,382.42c16.47,0,29.36,2,39.42,6.07.71.28,1.38.57,2.05.87v-6.85c0-11.91-4.33-14.54-5.74-15.4-3.12-1.89-12-5.06-36.46-5.06h-42.43c-19.55,0-24.55,2.67-25.35,3.21s-2.74,1.82-2.74,8.3v9.86c7.57-.67,16.17-1,25.89-1Z" fill="#fff"/><path d="M2110.35,498.44c-19.76,0-34.62-4.8-44.2-14.24l0-.05c-9.57-9.56-14.44-23.71-14.44-42V433c0-18,5.86-31.21,17.42-39.37a42.78,42.78,0,0,1,11.58-5.6h-22.1V369.59a50.1,50.1,0,0,1,4.52-21.67,41.93,41.93,0,0,1,13.95-16.4c11.25-7.93,29.39-11.78,55.47-11.78h43.31c32.21,0,54.44,4.67,68,14.29,14.49,10.2,21.83,27.75,21.83,52.15v109.9h-47.15v-2.44a37.93,37.93,0,0,1-3.76,1.3c-8.27,2.35-20.17,3.5-36.38,3.5Zm21.87-73.71c-22.14,0-28.6,2.73-30.07,3.57-.81.48-3.31,1.91-3.31,9.7v5.43c0,7,2.49,8.47,3.43,9,2.31,1.37,8.3,3.65,22.75,3.65h43.9c27.25,0,38.82-2.25,43.74-4.13s5.8-4.19,5.8-7.81v-6.46c0-5.4-2-7.34-5.17-8.71l-.1,0c-3.56-1.58-13.32-4.23-38.69-4.23ZM2177,382.42c16.47,0,29.36,2,39.42,6.07.71.28,1.38.57,2.05.87v-6.85c0-11.91-4.33-14.54-5.74-15.4-3.12-1.89-12-5.06-36.46-5.06h-42.43c-19.55,0-24.55,2.67-25.35,3.21s-2.74,1.82-2.74,8.3v9.86c7.57-.67,16.17-1,25.89-1Z" fill="#fff"/><path d="M2291.86,496.08v-174h45.54v6.37c.49-.29,1-.57,1.48-.84,9.57-5.23,21.68-7.87,36-7.87h24.22c26.31,0,44.65,4.9,56.07,15,11.76,10.3,17.72,26.58,17.72,48.38v29.6h-45.56V394.25c0-20.29-4.28-25.61-5.59-26.75-1-.92-7.65-5.44-35.56-5.44h-16.3c-11,0-19,2.39-23.83,7.1s-7,11.14-7,20v107Z" fill="#fff"/><path d="M2291.86,496.08v-174h45.54v6.37c.49-.29,1-.57,1.48-.84,9.57-5.23,21.68-7.87,36-7.87h24.22c26.31,0,44.65,4.9,56.07,15,11.76,10.3,17.72,26.58,17.72,48.38v29.6h-45.56V394.25c0-20.29-4.28-25.61-5.59-26.75-1-.92-7.65-5.44-35.56-5.44h-16.3c-11,0-19,2.39-23.83,7.1s-7,11.14-7,20v107Z" fill="#fff"/><path d="M2549.73,498.43c-26.09,0-44.15-4.44-55.24-13.6l0-.05c-11.5-9.62-17.33-24.62-17.33-44.58V420.73h22.18a36.41,36.41,0,0,1-5.61-4.19c-9.63-8.73-14.51-21.46-14.51-37.84V369c0-17.59,7.66-31,22.15-38.87,12.78-7,33.7-10.4,64-10.4h44.33c26.68,0,45.06,3.67,56.18,11.22a39.84,39.84,0,0,1,14,16.21,50.92,50.92,0,0,1,4.46,21.84v19h-43.54c14.24,1.74,25,5.66,32.77,11.82,11.44,9,17.23,23.55,17.23,43.13,0,9.55-1.68,18-5,25.15a43.16,43.16,0,0,1-15.85,18.29c-12.49,8.08-31.52,12-58.23,12Zm-23.12-46.28c1.89,1.49,6.9,4,19.31,4h60.92c23.79,0,31.32-2.35,33.44-3.36l0,0c2.95-1.38,3.27-8.29,3.27-11.2,0-4.8-.93-8.23-2.5-9.15s-7-3.09-22.81-3.09h-79.41a120.65,120.65,0,0,1-16.2-1v11.13c0,4.38.76,10.13,3.94,12.73m1.31-67.67c1,.54,5.52,2.5,19.9,2.5h73.84a164,164,0,0,1,17.08.82V377.38c0-6-1.11-10.32-3-11.83l-.12-.09c-1-.81-5.42-3.4-20.07-3.4h-58.14c-21.08,0-27.2,2.4-28.58,3.13l-.05,0c-.6.31-2.4,1.25-2.4,7.15V379c0,4.08,1.08,5.13,1.59,5.49" fill="#fff"/><path d="M2549.73,498.43c-26.09,0-44.15-4.44-55.24-13.6l0-.05c-11.5-9.62-17.33-24.62-17.33-44.58V420.73h22.18a36.41,36.41,0,0,1-5.61-4.19c-9.63-8.73-14.51-21.46-14.51-37.84V369c0-17.59,7.66-31,22.15-38.87,12.78-7,33.7-10.4,64-10.4h44.33c26.68,0,45.06,3.67,56.18,11.22a39.84,39.84,0,0,1,14,16.21,50.92,50.92,0,0,1,4.46,21.84v19h-43.54c14.24,1.74,25,5.66,32.77,11.82,11.44,9,17.23,23.55,17.23,43.13,0,9.55-1.68,18-5,25.15a43.16,43.16,0,0,1-15.85,18.29c-12.49,8.08-31.52,12-58.23,12Zm-23.12-46.28c1.89,1.49,6.9,4,19.31,4h60.92c23.79,0,31.32-2.35,33.44-3.36l0,0c2.95-1.38,3.27-8.29,3.27-11.2,0-4.8-.93-8.23-2.5-9.15s-7-3.09-22.81-3.09h-79.41a120.65,120.65,0,0,1-16.2-1v11.13C2522.72,443.8,2523.43,449.55,2526.61,452.15Zm1.31-67.67c1,.54,5.52,2.5,19.9,2.5h73.84a164,164,0,0,1,17.08.82V377.38c0-6-1.11-10.32-3-11.83l-.12-.09c-1-.81-5.42-3.4-20.07-3.4h-58.14c-21.08,0-27.2,2.4-28.58,3.13l-.05,0c-.6.31-2.4,1.25-2.4,7.15V379C2526.33,383.07,2527.41,384.12,2527.92,384.48Z" fill="#fff"/><path d="M1037.86,138.62C1037.86,94,1049,59.45,1071,36c22.29-23.87,55.19-36,97.77-36h59.47c46.3,0,80.8,13,102.53,38.58,21.4,25.17,31.82,64.1,31.82,119v83.22c0,21.53-2.17,40.83-6.41,57.34-4.49,17.5-11.48,32.47-20.77,44.53-19.21,24.91-47.75,37.54-84.76,37.54h-29.25V297.43H1249c19.77,0,25.25-7.48,27-10l.1-.13c3.55-4.75,9.49-17.5,9.49-49.5V147.42c0-24-4.54-41-13.13-49.14S1247.39,85.7,1225,85.7h-51.74c-21.89,0-37,5.3-44.78,15.74-9,12-13.72,33.21-13.72,61.45v75.22c0,23.35,3.9,41.2,11.3,51.6,3.89,5.49,11.12,12.79,28.8,12.79h28.43v82.76h-30c-37.84,0-67-11.36-86.82-33.77-19.24-21.83-28.59-56.65-28.59-106.45Z" fill="#0fbcc1"/><path d="M1037.86,138.62C1037.86,94,1049,59.45,1071,36c22.29-23.87,55.19-36,97.77-36h59.47c46.3,0,80.8,13,102.53,38.58,21.4,25.17,31.82,64.1,31.82,119v83.22c0,21.53-2.17,40.83-6.41,57.34-4.49,17.5-11.48,32.47-20.77,44.53-19.21,24.91-47.75,37.54-84.76,37.54h-29.25V297.43H1249c19.77,0,25.25-7.48,27-10l.1-.13c3.55-4.75,9.49-17.5,9.49-49.5V147.42c0-24-4.54-41-13.13-49.14S1247.39,85.7,1225,85.7h-51.74c-21.89,0-37,5.3-44.78,15.74-9,12-13.72,33.21-13.72,61.45v75.22c0,23.35,3.9,41.2,11.3,51.6,3.89,5.49,11.12,12.79,28.8,12.79h28.43v82.76h-30c-37.84,0-67-11.36-86.82-33.77-19.24-21.83-28.59-56.65-28.59-106.45Z" fill="#a31e22"/><path d="M1362.56,672.63c0,44.65-11.14,79.18-33.11,102.66-22.29,23.86-55.19,36-97.77,36h-59.47c-46.31,0-80.8-13-102.53-38.59-21.4-25.17-31.82-64.09-31.82-119V570.49c0-21.53,2.17-40.84,6.41-57.35,4.49-17.5,11.48-32.46,20.77-44.52,19.21-24.91,47.74-37.54,84.76-37.54h29.25v82.75h-27.66c-19.76,0-25.24,7.48-27.05,9.95l-.09.14c-3.56,4.74-9.49,17.49-9.49,49.49v90.43c0,24,4.54,41,13.13,49.14s25.15,12.58,47.53,12.58h51.73c21.9,0,37-5.3,44.79-15.74,9-12,13.72-33.21,13.72-61.46V573.14c0-23.34-3.9-41.19-11.3-51.59-3.89-5.49-11.12-12.8-28.81-12.8h-28.42V426h30c37.85,0,67.06,11.35,86.83,33.77,19.24,21.83,28.58,56.64,28.58,106.45Z" fill="#a31e22"/></g><g id="Beer_Wine_Spirit" data-name="Beer Wine Spirit"><path d="M1488.3,711.75c-9.63,0-17.59-1.52-23.67-4.51a33,33,0,0,1-3.69-2.14v5.31h-23.82V576.62h24.74V617a19.67,19.67,0,0,1,2.06-1c5.18-2.31,11.91-3.43,20.56-3.43h20.94c20.79,0,34.35,3.31,41.49,10.13s10.71,17.69,10.71,32.41v14.39c0,15.72-4.46,26.91-13.24,33.26-8.27,6-20.26,9-35.63,9Zm-.16-77.22c-12.83,0-18.63,2.34-21.24,4.3l0,0c-3.33,2.46-5,7.75-5,15.71v14c0,8.25,1.71,13.85,5.07,16.64,3.68,3,10.11,4.57,19,4.57h24.93c7.87,0,13.67-1.37,17.24-4.06,3.9-2.92,4.72-10.07,4.72-15.57V654c0-7.57-1.54-12.88-4.45-15.36-2.2-1.88-7.27-4.11-18.92-4.11Z" fill="#fff"/><path d="M1488.3,711.75c-9.63,0-17.59-1.52-23.67-4.51a33,33,0,0,1-3.69-2.14v5.31h-23.82V576.62h24.74V617a19.67,19.67,0,0,1,2.06-1c5.18-2.31,11.91-3.43,20.56-3.43h20.94c20.79,0,34.35,3.31,41.49,10.13s10.71,17.69,10.71,32.41v14.39c0,15.72-4.46,26.91-13.24,33.26-8.27,6-20.26,9-35.63,9Zm-.16-77.22c-12.83,0-18.63,2.34-21.24,4.3l0,0c-3.33,2.46-5,7.75-5,15.71v14c0,8.25,1.71,13.85,5.07,16.64,3.68,3,10.11,4.57,19,4.57h24.93c7.87,0,13.67-1.37,17.24-4.06,3.9-2.92,4.72-10.07,4.72-15.57V654c0-7.57-1.54-12.88-4.45-15.36-2.2-1.88-7.27-4.11-18.92-4.11Z" fill="#fff"/><path d="M1613.9,711.75c-15.79,0-27.13-3.12-34.62-9.53s-11.41-17-11.41-31v-18c0-13.23,3.66-23.44,10.88-30.33s18.54-10.38,33.9-10.38h27.78c16.54,0,28.56,3.29,36.72,10.06,8.32,6.84,12.55,17.83,12.55,32.66v14.6h-97.09v.69c0,7.27,1.77,12.11,5.4,14.77,2.81,2,9.3,4.45,24.29,4.45h24.18c9.77,0,13.57-1.74,15-2.76,2.16-1.61,3.32-4.38,3.52-8.47l.24-4.82h24.5v7c0,10.37-4.58,18.61-13.24,23.84-8.06,4.86-19.5,7.23-35,7.23Zm51.06-63.9v-.09c0-3.62,0-13.23-23.63-13.23h-25.69c-14.68,0-18.44,3.22-19.38,4.62a22.26,22.26,0,0,0-3.27,8.7Z" fill="#fff"/><path d="M1613.9,711.75c-15.79,0-27.13-3.12-34.62-9.53s-11.41-17-11.41-31v-18c0-13.23,3.66-23.44,10.88-30.33s18.54-10.38,33.9-10.38h27.78c16.54,0,28.56,3.29,36.72,10.06,8.32,6.84,12.55,17.83,12.55,32.66v14.6h-97.09v.69c0,7.27,1.77,12.11,5.4,14.77,2.81,2,9.3,4.45,24.29,4.45h24.18c9.77,0,13.57-1.74,15-2.76,2.16-1.61,3.32-4.38,3.52-8.47l.24-4.82h24.5v7c0,10.37-4.58,18.61-13.24,23.84-8.06,4.86-19.5,7.23-35,7.23Zm51.06-63.9v-.09c0-3.62,0-13.23-23.63-13.23h-25.69c-14.68,0-18.44,3.22-19.38,4.62a22.26,22.26,0,0,0-3.27,8.7Z" fill="#fff"/><path d="M1744.15,711.75c-15.79,0-27.13-3.12-34.61-9.53s-11.42-17-11.42-31v-18c0-13.23,3.67-23.44,10.88-30.33s18.54-10.38,33.9-10.38h27.78c16.55,0,28.56,3.29,36.72,10.06,8.32,6.84,12.56,17.83,12.56,32.66v14.6h-97.1v.69c0,7.27,1.77,12.1,5.4,14.77,2.81,2,9.31,4.45,24.3,4.45h24.17c9.77,0,13.57-1.74,15-2.76,2.17-1.61,3.33-4.38,3.53-8.49l.24-4.8H1820v7c0,10.37-4.59,18.61-13.24,23.84-8.07,4.86-19.51,7.23-35,7.23Zm51.06-63.9v-.09c0-3.62,0-13.23-23.63-13.23H1745.9c-14.68,0-18.44,3.22-19.38,4.62a22.43,22.43,0,0,0-3.28,8.7Z" fill="#fff"/><path d="M1744.15,711.75c-15.79,0-27.13-3.12-34.61-9.53s-11.42-17-11.42-31v-18c0-13.23,3.67-23.44,10.88-30.33s18.54-10.38,33.9-10.38h27.78c16.55,0,28.56,3.29,36.72,10.06,8.32,6.84,12.56,17.83,12.56,32.66v14.6h-97.1v.69c0,7.27,1.77,12.1,5.4,14.77,2.81,2,9.31,4.45,24.3,4.45h24.17c9.77,0,13.57-1.74,15-2.76,2.17-1.61,3.33-4.38,3.53-8.49l.24-4.8H1820v7c0,10.37-4.59,18.61-13.24,23.84-8.07,4.86-19.51,7.23-35,7.23Zm51.06-63.9v-.09c0-3.62,0-13.23-23.63-13.23H1745.9c-14.68,0-18.44,3.22-19.38,4.62a22.43,22.43,0,0,0-3.28,8.7Z" fill="#fff"/><path d="M1833.45,710.41V613.87h23.82v4.4a25,25,0,0,1,2.29-1.4c5.27-2.88,12-4.33,19.92-4.33h13.72c14.64,0,24.82,2.7,31.11,8.24s9.68,14.59,9.68,26.65V663.2h-23.82v-9.45c0-11.59-2.46-15-3.5-15.89s-5-3.33-20.79-3.33h-9.23c-6.48,0-11.24,1.44-14.19,4.3s-4.27,6.73-4.27,12v59.57Z" fill="#fff"/><path d="M1833.45,710.41V613.87h23.82v4.4a25,25,0,0,1,2.29-1.4c5.27-2.88,12-4.33,19.92-4.33h13.72c14.64,0,24.82,2.7,31.11,8.24s9.68,14.59,9.68,26.65V663.2h-23.82v-9.45c0-11.59-2.46-15-3.5-15.89s-5-3.33-20.79-3.33h-9.23c-6.48,0-11.24,1.44-14.19,4.3s-4.27,6.73-4.27,12v59.57Z" fill="#fff"/><polygon points="2127.65 710.41 2103.76 645.39 2079.93 710.41 2052.79 710.41 2008.23 613.87 2034.92 613.87 2065.4 680.3 2089.74 613.87 2117.83 613.87 2142.1 680.3 2172.65 613.87 2199.34 613.87 2154.78 710.41 2127.65 710.41" fill="#fff"/><polygon points="2127.65 710.41 2103.76 645.39 2079.93 710.41 2052.79 710.41 2008.23 613.87 2034.92 613.87 2065.4 680.3 2089.74 613.87 2117.83 613.87 2142.1 680.3 2172.65 613.87 2199.34 613.87 2154.78 710.41 2127.65 710.41" fill="#fff"/><path d="M2203.09,613.86h24.74v96.55h-24.74Zm0-35.9h24.74V604h-24.74Z" fill="#fff"/><path d="M2203.09,613.86h24.74v96.55h-24.74Zm0-35.9h24.74V604h-24.74Z" fill="#fff"/><path d="M2340.41,710.41V651.08c0-6.76-1.63-11.13-4.86-13-2.84-1.64-8.92-3.57-21.67-3.57h-5.82c-18.32,0-26.25,2.53-29.68,4.64-4.25,2.64-6.33,8-6.33,16.4v54.84h-24.74V613.87h23.84v6a25.85,25.85,0,0,1,4.14-2.71c5.58-3,14.15-4.48,26.21-4.65h21.86c13.36,0,23.69,2.85,30.71,8.48,7.35,5.91,11.08,14.68,11.08,26.08v63.31Z" fill="#fff"/><path d="M2340.41,710.41V651.08c0-6.76-1.63-11.13-4.86-13-2.84-1.64-8.92-3.57-21.67-3.57h-5.82c-18.32,0-26.25,2.53-29.68,4.64-4.25,2.64-6.33,8-6.33,16.4v54.84h-24.74V613.87h23.84v6a25.85,25.85,0,0,1,4.14-2.71c5.58-3,14.15-4.48,26.21-4.65h21.86c13.36,0,23.69,2.85,30.71,8.48,7.35,5.91,11.08,14.68,11.08,26.08v63.31Z" fill="#fff"/><path d="M2424.09,711.75c-15.79,0-27.12-3.12-34.62-9.53s-11.41-17-11.41-31v-18c0-13.23,3.67-23.44,10.88-30.33s18.54-10.38,33.91-10.38h27.76c16.56,0,28.57,3.29,36.73,10.06,8.32,6.84,12.55,17.83,12.55,32.66v14.6H2402.8v.69c0,7.27,1.77,12.1,5.41,14.77,2.81,2,9.3,4.45,24.29,4.45h24.18c9.77,0,13.57-1.74,15-2.76,2.16-1.61,3.32-4.38,3.52-8.47l.22-4.82h24.51v7c0,10.37-4.58,18.61-13.23,23.84-8.07,4.86-19.51,7.23-35,7.23Zm51.06-63.9v-.09c0-3.62,0-13.23-23.62-13.23h-25.69c-14.7,0-18.45,3.22-19.38,4.62a22.21,22.21,0,0,0-3.28,8.7Z" fill="#fff"/><path d="M2424.09,711.75c-15.79,0-27.12-3.12-34.62-9.53s-11.41-17-11.41-31v-18c0-13.23,3.67-23.44,10.88-30.33s18.54-10.38,33.91-10.38h27.76c16.56,0,28.57,3.29,36.73,10.06,8.32,6.84,12.55,17.83,12.55,32.66v14.6H2402.8v.69c0,7.27,1.77,12.1,5.41,14.77,2.81,2,9.3,4.45,24.29,4.45h24.18c9.77,0,13.57-1.74,15-2.76,2.16-1.61,3.32-4.38,3.52-8.47l.22-4.82h24.51v7c0,10.37-4.58,18.61-13.23,23.84-8.07,4.86-19.51,7.23-35,7.23Zm51.06-63.9v-.09c0-3.62,0-13.23-23.62-13.23h-25.69c-14.7,0-18.45,3.22-19.38,4.62a22.21,22.21,0,0,0-3.28,8.7Z" fill="#fff"/><path d="M2631.15,711.75c-14.53,0-24.56-2.45-30.65-7.47l0,0c-6.27-5.25-9.45-13.49-9.45-24.49v-10h15.72a22.42,22.42,0,0,1-6.66-4.09c-5.23-4.74-7.89-11.71-7.89-20.7v-5.49c0-9.57,4.15-16.89,12-21.15,7.12-3.87,18.82-5.75,35.77-5.75h25.1c14.9,0,25.12,2,31.25,6.18,4.58,3.07,10,9.17,10,20.72v9.81h-23.81v-5.07c0-3.76-.75-6.41-2.11-7.47l-.06,0c-.82-.64-3.61-2.14-12-2.14h-32.92c-11.84,0-15.59,1.32-16.65,1.9h0c-.52.27-1.89,1-1.89,4.93v3.74c0,2.92.93,3.66,1.37,3.95.68.39,3.39,1.55,11.79,1.55h41.8c13.38,0,22.79,2.31,28.76,7.09,6.23,4.92,9.38,12.89,9.38,23.65s-3.82,18.86-11.37,23.76c-6.88,4.47-17.48,6.65-32.42,6.65Zm-13.71-24.46c1.43,1.12,4.59,2.46,11.56,2.46h34.49c13.17,0,17.78-1.25,19.35-2h0c2-.94,2.42-4.45,2.42-7.23,0-2.24-.33-5.1-1.91-6-1.19-.71-4.55-1.89-13.41-1.89h-45a65.47,65.47,0,0,1-10.16-.71v7.44c0,3.92.92,6.6,2.6,8" fill="#fff"/><path d="M2631.15,711.75c-14.53,0-24.56-2.45-30.65-7.47l0,0c-6.27-5.25-9.45-13.49-9.45-24.49v-10h15.72a22.42,22.42,0,0,1-6.66-4.09c-5.23-4.74-7.89-11.71-7.89-20.7v-5.49c0-9.57,4.15-16.89,12-21.15,7.12-3.87,18.82-5.75,35.77-5.75h25.1c14.9,0,25.12,2,31.25,6.18,4.58,3.07,10,9.17,10,20.72v9.81h-23.81v-5.07c0-3.76-.75-6.41-2.11-7.47l-.06,0c-.82-.64-3.61-2.14-12-2.14h-32.92c-11.84,0-15.59,1.32-16.65,1.9h0c-.52.27-1.89,1-1.89,4.93v3.74c0,2.92.93,3.66,1.37,3.95.68.39,3.39,1.55,11.79,1.55h41.8c13.38,0,22.79,2.31,28.76,7.09,6.23,4.92,9.38,12.89,9.38,23.65s-3.82,18.86-11.37,23.76c-6.88,4.47-17.48,6.65-32.42,6.65Zm-13.71-24.46c1.43,1.12,4.59,2.46,11.56,2.46h34.49c13.17,0,17.78-1.25,19.35-2h0c2-.94,2.42-4.45,2.42-7.23,0-2.24-.33-5.1-1.91-6-1.19-.71-4.55-1.89-13.41-1.89h-45a65.47,65.47,0,0,1-10.16-.71v7.44C2614.88,683.24,2615.76,685.92,2617.44,687.29Z" fill="#fff"/><path d="M3203.93,711.75c-14.54,0-24.56-2.45-30.65-7.47l0,0c-6.27-5.25-9.45-13.49-9.45-24.49v-10h15.71a22.37,22.37,0,0,1-6.65-4.09c-5.24-4.74-7.89-11.71-7.89-20.7v-5.49c0-9.57,4.14-16.89,12-21.15,7.11-3.87,18.81-5.75,35.76-5.75h25.1c14.9,0,25.13,2,31.26,6.18,4.58,3.07,10,9.17,10,20.72v9.81h-23.8v-5.07c0-3.76-.75-6.41-2.11-7.47l-.07,0c-.81-.64-3.61-2.14-12-2.14h-32.92c-11.83,0-15.58,1.32-16.65,1.9h0c-.51.27-1.89,1-1.89,4.93v3.74c0,2.92.94,3.66,1.37,3.95.68.39,3.4,1.55,11.79,1.55h41.81c13.37,0,22.78,2.31,28.75,7.09,6.23,4.92,9.39,12.89,9.39,23.65s-3.82,18.86-11.37,23.76c-6.88,4.47-17.48,6.65-32.43,6.65Zm-13.71-24.46c1.42,1.12,4.58,2.46,11.55,2.46h34.49c13.18,0,17.78-1.25,19.35-2h0c2-.94,2.41-4.45,2.41-7.23,0-2.24-.33-5.1-1.9-6-1.2-.71-4.55-1.89-13.41-1.89h-45a65.34,65.34,0,0,1-10.15-.71v7.44c0,3.92.92,6.6,2.6,8" fill="#fff"/><path d="M3203.93,711.75c-14.54,0-24.56-2.45-30.65-7.47l0,0c-6.27-5.25-9.45-13.49-9.45-24.49v-10h15.71a22.37,22.37,0,0,1-6.65-4.09c-5.24-4.74-7.89-11.71-7.89-20.7v-5.49c0-9.57,4.14-16.89,12-21.15,7.11-3.87,18.81-5.75,35.76-5.75h25.1c14.9,0,25.13,2,31.26,6.18,4.58,3.07,10,9.17,10,20.72v9.81h-23.8v-5.07c0-3.76-.75-6.41-2.11-7.47l-.07,0c-.81-.64-3.61-2.14-12-2.14h-32.92c-11.83,0-15.58,1.32-16.65,1.9h0c-.51.27-1.89,1-1.89,4.93v3.74c0,2.92.94,3.66,1.37,3.95.68.39,3.4,1.55,11.79,1.55h41.81c13.37,0,22.78,2.31,28.75,7.09,6.23,4.92,9.39,12.89,9.39,23.65s-3.82,18.86-11.37,23.76c-6.88,4.47-17.48,6.65-32.43,6.65Zm-13.71-24.46c1.42,1.12,4.58,2.46,11.55,2.46h34.49c13.18,0,17.78-1.25,19.35-2h0c2-.94,2.41-4.45,2.41-7.23,0-2.24-.33-5.1-1.9-6-1.2-.71-4.55-1.89-13.41-1.89h-45a65.34,65.34,0,0,1-10.15-.71v7.44C3187.66,683.24,3188.54,685.92,3190.22,687.29Z" fill="#fff"/><path d="M2724.51,741V613.87h23.83v4.93c.84-.58,1.72-1.14,2.64-1.65,5.56-3.06,12.7-4.62,21.24-4.62h28.51c29,0,44.27,14.57,44.27,42.13v14.46c0,14.93-3.7,25.92-11,32.65s-19,10-35.67,10h-27.93c-8.4,0-14.82-1.08-19.64-3.27-.51-.24-1-.49-1.5-.77V741Zm29.33-55.77c3.17,3,8.77,4.51,16.62,4.51h26.69c11.26,0,16.35-2.16,18.64-4,2.93-2.33,4.49-7.67,4.49-15.49v-16c0-7.52-1.45-12.74-4.29-15.5s-8.53-4.22-16.44-4.22h-29.09c-7.36,0-12.81,1.64-16.19,4.9s-5,8.36-5,15.31V670c0,7.15,1.56,12.27,4.6,15.2" fill="#fff"/><path d="M2724.51,741V613.87h23.83v4.93c.84-.58,1.72-1.14,2.64-1.65,5.56-3.06,12.7-4.62,21.24-4.62h28.51c29,0,44.27,14.57,44.27,42.13v14.46c0,14.93-3.7,25.92-11,32.65s-19,10-35.67,10h-27.93c-8.4,0-14.82-1.08-19.64-3.27-.51-.24-1-.49-1.5-.77V741Zm29.33-55.77c3.17,3,8.77,4.51,16.62,4.51h26.69c11.26,0,16.35-2.16,18.64-4,2.93-2.33,4.49-7.67,4.49-15.49v-16c0-7.52-1.45-12.74-4.29-15.5s-8.53-4.22-16.44-4.22h-29.09c-7.36,0-12.81,1.64-16.19,4.9s-5,8.36-5,15.31V670C2749.24,677.19,2750.8,682.31,2753.84,685.24Z" fill="#fff"/><path d="M2861.25,613.86H2886v96.55h-24.74Zm0-35.9H2886V604h-24.74Z" fill="#fff"/><path d="M2861.25,613.86H2886v96.55h-24.74Zm0-35.9H2886V604h-24.74Z" fill="#fff"/><path d="M2906.64,710.41V613.87h23.82v4.4a25,25,0,0,1,2.29-1.4c5.27-2.88,12-4.33,19.92-4.33h13.71c14.66,0,24.83,2.69,31.11,8.23,6.43,5.64,9.7,14.61,9.7,26.66V663.2h-23.83v-9.45c0-11.59-2.45-15-3.5-15.89s-5.48-3.33-20.79-3.33h-9.22c-6.47,0-11.25,1.44-14.19,4.3s-4.28,6.73-4.28,12v59.57Z" fill="#fff"/><path d="M2906.64,710.41V613.87h23.82v4.4a25,25,0,0,1,2.29-1.4c5.27-2.88,12-4.33,19.92-4.33h13.71c14.66,0,24.83,2.69,31.11,8.23,6.43,5.64,9.7,14.61,9.7,26.66V663.2h-23.83v-9.45c0-11.59-2.45-15-3.5-15.89s-5.48-3.33-20.79-3.33h-9.22c-6.47,0-11.25,1.44-14.19,4.3s-4.28,6.73-4.28,12v59.57Z" fill="#fff"/><path d="M3016.86,613.86h24.73v96.55h-24.73Zm0-35.9h24.73V604h-24.73Z" fill="#fff"/><path d="M3016.86,613.86h24.73v96.55h-24.73Zm0-35.9h24.73V604h-24.73Z" fill="#fff"/><path d="M3109.11,711.75c-13.33,0-23-2.6-29.69-7.93l0,0c-6.8-5.58-10.24-14.08-10.24-25.25V635.85H3050.1v-22h19.05v-20h24.73v20h58.52v22h-58.52v37.68c0,6.61,1.2,11.24,3.4,13.05,2.51,2.08,7.18,3.17,13.49,3.17h5.07c8.33,0,12.39-1.29,14.33-2.39.15-.1,2.89-2.12,2.89-15.25V660.4h22v17c0,13.23-3.46,22.48-10.29,27.45-6.4,4.63-15.54,6.87-28,6.87Z" fill="#fff"/><path d="M3109.11,711.75c-13.33,0-23-2.6-29.69-7.93l0,0c-6.8-5.58-10.24-14.08-10.24-25.25V635.85H3050.1v-22h19.05v-20h24.73v20h58.52v22h-58.52v37.68c0,6.61,1.2,11.24,3.4,13.05,2.51,2.08,7.18,3.17,13.49,3.17h5.07c8.33,0,12.39-1.29,14.33-2.39.15-.1,2.89-2.12,2.89-15.25V660.4h22v17c0,13.23-3.46,22.48-10.29,27.45-6.4,4.63-15.54,6.87-28,6.87Z" fill="#fff"/></g></g></svg>