<svg xmlns="http://www.w3.org/2000/svg" viewBox="0 0 2690.75 811.26"><g id="Layer_2" data-name="Layer 2"><g id="Craft_Cellars" data-name="Craft Cellars"><path d="M76.29,498.44c-24.57,0-43.57-6.14-56.5-18.23C6.66,467.94,0,449.84,0,426.4V393.67c0-25.48,7.15-44.47,21.24-56.42,13.85-11.79,35.27-17.52,65.47-17.52h45.8a128.25,128.25,0,0,1,31.56,3.53,67.11,67.11,0,0,1,24.5,11.43c13.71,10.57,20.67,26.28,20.67,46.65v16.1H163.69V382.22c0-10.88-4.11-13.89-5.48-14.89l-.07-.05c-2.61-2-9.63-5.22-27.24-5.22H81.13c-13.23,0-22.57,2.5-27,7.22s-6.93,13.84-6.93,26.16v28.47c0,12,2.92,20.34,8.67,24.65,6.58,4.94,18.28,7.55,33.82,7.55h41.4c12.85,0,22.67-2.15,28.39-6.22,3-2.14,7-6.12,7-15.85V418.39H212v16.53c0,20.83-6.25,36.91-18.58,47.78-12,10.59-31.18,15.74-58.59,15.74Z" fill="#fff"/><path d="M76.29,498.44c-24.57,0-43.57-6.14-56.5-18.23C6.66,467.94,0,449.84,0,426.4V393.67c0-25.48,7.15-44.47,21.24-56.42,13.85-11.79,35.27-17.52,65.47-17.52h45.8a128.25,128.25,0,0,1,31.56,3.53,67.11,67.11,0,0,1,24.5,11.43c13.71,10.57,20.67,26.28,20.67,46.65v16.1H163.69V382.22c0-10.88-4.11-13.89-5.48-14.89l-.07-.05c-2.61-2-9.63-5.22-27.24-5.22H81.13c-13.23,0-22.57,2.5-27,7.22s-6.93,13.84-6.93,26.16v28.47c0,12,2.92,20.34,8.67,24.65,6.58,4.94,18.28,7.55,33.82,7.55h41.4c12.85,0,22.67-2.15,28.39-6.22,3-2.14,7-6.12,7-15.85V418.39H212v16.53c0,20.83-6.25,36.91-18.58,47.78-12,10.59-31.18,15.74-58.59,15.74Z"/><path d="M231.81,496.08v-174h45.54v6.36c.49-.29,1-.57,1.49-.84,9.56-5.23,21.68-7.87,36-7.87h24.22c26.31,0,44.65,4.9,56.07,15C406.9,345,412.86,361.3,412.86,383.1v29.6H367.31V394.26c0-20.3-4.28-25.62-5.6-26.76-1-.91-7.65-5.44-35.56-5.44h-16.3c-11,0-19,2.39-23.84,7.1s-7,11.14-7,20v107Z" fill="#fff"/><path d="M231.81,496.08v-174h45.54v6.36c.49-.29,1-.57,1.49-.84,9.56-5.23,21.68-7.87,36-7.87h24.22c26.31,0,44.65,4.9,56.07,15C406.9,345,412.86,361.3,412.86,383.1v29.6H367.31V394.26c0-20.3-4.28-25.62-5.6-26.76-1-.91-7.65-5.44-35.56-5.44h-16.3c-11,0-19,2.39-23.84,7.1s-7,11.14-7,20v107Z"/><path d="M473.39,498.44c-19.75,0-34.62-4.79-44.19-14.24l0-.05c-9.58-9.57-14.43-23.72-14.43-42V433c0-18,5.85-31.21,17.4-39.37a43.07,43.07,0,0,1,11.6-5.6h-22.1V369.59a50.1,50.1,0,0,1,4.52-21.67,41.89,41.89,0,0,1,13.94-16.4c11.25-7.93,29.39-11.78,55.47-11.78h43.31c32.21,0,54.43,4.67,68,14.29,14.49,10.2,21.83,27.75,21.83,52.16V496.08H581.5v-2.43a34,34,0,0,1-3.76,1.29c-8.27,2.35-20.16,3.5-36.37,3.5Zm21.88-73.7c-22.14,0-28.61,2.73-30.06,3.56-.83.48-3.32,1.92-3.32,9.7v5.43c0,7,2.4,8.42,3.44,9,2.29,1.37,8.29,3.65,22.74,3.65H532c27.24,0,38.83-2.25,43.75-4.13s5.78-4.19,5.78-7.81v-6.46c0-5.4-2-7.34-5.16-8.71l-.09,0c-3.56-1.58-13.34-4.22-38.71-4.22ZM540,382.42c16.46,0,29.36,2,39.43,6.07.69.28,1.37.57,2,.87v-6.85c0-11.92-4.32-14.54-5.74-15.4-3.11-1.89-12-5.06-36.45-5.06H496.88c-19.56,0-24.55,2.67-25.35,3.21s-2.74,1.82-2.74,8.3v9.86c7.57-.67,16.17-1,25.89-1Z" fill="#fff"/><path d="M473.39,498.44c-19.75,0-34.62-4.79-44.19-14.24l0-.05c-9.58-9.57-14.43-23.72-14.43-42V433c0-18,5.85-31.21,17.4-39.37a43.07,43.07,0,0,1,11.6-5.6h-22.1V369.59a50.1,50.1,0,0,1,4.52-21.67,41.89,41.89,0,0,1,13.94-16.4c11.25-7.93,29.39-11.78,55.47-11.78h43.31c32.21,0,54.43,4.67,68,14.29,14.49,10.2,21.83,27.75,21.83,52.16V496.08H581.5v-2.43a34,34,0,0,1-3.76,1.29c-8.27,2.35-20.16,3.5-36.37,3.5Zm21.88-73.7c-22.14,0-28.61,2.73-30.06,3.56-.83.48-3.32,1.92-3.32,9.7v5.43c0,7,2.4,8.42,3.44,9,2.29,1.37,8.29,3.65,22.74,3.65H532c27.24,0,38.83-2.25,43.75-4.13s5.78-4.19,5.78-7.81v-6.46c0-5.4-2-7.34-5.16-8.71l-.09,0c-3.56-1.58-13.34-4.22-38.71-4.22ZM540,382.42c16.46,0,29.36,2,39.43,6.07.69.28,1.37.57,2,.87v-6.85c0-11.92-4.32-14.54-5.74-15.4-3.11-1.89-12-5.06-36.45-5.06H496.88c-19.56,0-24.55,2.67-25.35,3.21s-2.74,1.82-2.74,8.3v9.86c7.57-.67,16.17-1,25.89-1Z"/><path d="M928.55,404.29V426.7c0,21-4,25.15-4.31,25.46-3.3,1.82-10.18,3.95-24.38,3.95h-9c-13.58,0-19.86-2.82-22.73-5.19-1.61-1.33-5.37-6.13-5.37-21.73V364.4H966.16V322.09H862.81V286.85H815.65v35.24H718.06v-8c0-9.79,2.87-15.46,17.52-15.46h55.3V256.32H732.5c-19.9,0-35.33,5.52-45.88,16.43s-15.71,26.59-15.71,46.93v2.41H638V364.4h32.9V496.08h47.15V364.4h97.59V438c0,20.29,6.3,35.75,18.73,46l.08.07c12,9.69,29.55,14.4,53.51,14.4h13.5c22.38,0,38.88-4.08,50.47-12.47,6.6-4.8,11.53-11.76,14.68-20.69,2.81-8,4.24-17.8,4.24-29.19v-31.8Z" fill="#fff"/><path d="M928.55,404.29V426.7c0,21-4,25.15-4.31,25.46-3.3,1.82-10.18,3.95-24.38,3.95h-9c-13.58,0-19.86-2.82-22.73-5.19-1.61-1.33-5.37-6.13-5.37-21.73V364.4H966.16V322.09H862.81V286.85H815.65v35.24H718.06v-8c0-9.79,2.87-15.46,17.52-15.46h55.3V256.32H732.5c-19.9,0-35.33,5.52-45.88,16.43s-15.71,26.59-15.71,46.93v2.41H638V364.4h32.9V496.08h47.15V364.4h97.59V438c0,20.29,6.3,35.75,18.73,46l.08.07c12,9.69,29.55,14.4,53.51,14.4h13.5c22.38,0,38.88-4.08,50.47-12.47,6.6-4.8,11.53-11.76,14.68-20.69,2.81-8,4.24-17.8,4.24-29.19v-31.8Z"/><path d="M1512.7,498.44c-24.56,0-43.58-6.14-56.49-18.23-13.13-12.27-19.79-30.37-19.79-53.81V393.67c0-25.48,7.15-44.47,21.23-56.42,13.86-11.79,35.28-17.52,65.47-17.52h45.81a128.22,128.22,0,0,1,31.56,3.52,67.36,67.36,0,0,1,24.5,11.44c13.71,10.57,20.66,26.27,20.66,46.65v16.1h-45.54V382.22c0-10.89-4.12-13.9-5.47-14.9l-.08,0c-2.61-2-9.64-5.22-27.25-5.22h-49.76c-13.22,0-22.58,2.5-27,7.22s-6.93,13.84-6.93,26.15v28.48c0,12,2.92,20.34,8.65,24.64,6.6,4.95,18.29,7.56,33.84,7.56h41.39c12.86,0,22.67-2.15,28.4-6.22,3-2.14,7-6.12,7-15.85V418.39h45.54v16.53c0,20.82-6.25,36.89-18.58,47.78-12,10.59-31.18,15.74-58.58,15.74Z" fill="#fff"/><path d="M1512.7,498.44c-24.56,0-43.58-6.14-56.49-18.23-13.13-12.27-19.79-30.37-19.79-53.81V393.67c0-25.48,7.15-44.47,21.23-56.42,13.86-11.79,35.28-17.52,65.47-17.52h45.81a128.22,128.22,0,0,1,31.56,3.52,67.36,67.36,0,0,1,24.5,11.44c13.71,10.57,20.66,26.27,20.66,46.65v16.1h-45.54V382.22c0-10.89-4.12-13.9-5.47-14.9l-.08,0c-2.61-2-9.64-5.22-27.25-5.22h-49.76c-13.22,0-22.58,2.5-27,7.22s-6.93,13.84-6.93,26.15v28.48c0,12,2.92,20.34,8.65,24.64,6.6,4.95,18.29,7.56,33.84,7.56h41.39c12.86,0,22.67-2.15,28.4-6.22,3-2.14,7-6.12,7-15.85V418.39h45.54v16.53c0,20.82-6.25,36.89-18.58,47.78-12,10.59-31.18,15.74-58.58,15.74Z"/><path d="M1742.3,498.44c-13.58,0-25.58-1.36-35.65-4-10.74-2.86-19.69-7.3-26.62-13.21l0,0c-13.75-11.85-20.72-30.72-20.72-56.07V393.38c0-23.86,6.63-42.3,19.72-54.82,6.7-6.46,15.46-11.31,26-14.42,9.9-2.93,21.7-4.4,35.09-4.4h49c14.27,0,26.93,1.44,37.63,4.28,11.32,3,20.84,7.67,28.31,13.86,15.14,12.44,22.82,32.3,22.82,59v27.54H1706.44c.09,12,3,19.87,8.81,24.17,4.77,3.43,15.91,7.5,41.88,7.5h42.73c16.7,0,23.06-2.82,25.37-4.51,1.26-.94,5-3.79,5.53-13.68l.49-10.13h46.65v14a51.73,51.73,0,0,1-6.09,25.26,49.44,49.44,0,0,1-18.11,18.33c-14.53,8.76-35,13-62.66,13Zm88.4-116.31c-.34-6.27-2.75-10.52-7.69-13.68-6.58-4.18-17.72-6.39-32.25-6.39h-45.37c-25.75,0-31.59,5.61-32.79,7.38a37,37,0,0,0-5.14,12.69Z" fill="#fff"/><path d="M1742.3,498.44c-13.58,0-25.58-1.36-35.65-4-10.74-2.86-19.69-7.3-26.62-13.21l0,0c-13.75-11.85-20.72-30.72-20.72-56.07V393.38c0-23.86,6.63-42.3,19.72-54.82,6.7-6.46,15.46-11.31,26-14.42,9.9-2.93,21.7-4.4,35.09-4.4h49c14.27,0,26.93,1.44,37.63,4.28,11.32,3,20.84,7.67,28.31,13.86,15.14,12.44,22.82,32.3,22.82,59v27.54H1706.44c.09,12,3,19.87,8.81,24.17,4.77,3.43,15.91,7.5,41.88,7.5h42.73c16.7,0,23.06-2.82,25.37-4.51,1.26-.94,5-3.79,5.53-13.68l.49-10.13h46.65v14a51.73,51.73,0,0,1-6.09,25.26,49.44,49.44,0,0,1-18.11,18.33c-14.53,8.76-35,13-62.66,13Zm88.4-116.31c-.34-6.27-2.75-10.52-7.69-13.68-6.58-4.18-17.72-6.39-32.25-6.39h-45.37c-25.75,0-31.59,5.61-32.79,7.38a37,37,0,0,0-5.14,12.69Z"/><rect x="1899.88" y="256.32" width="47.16" height="239.76" fill="#fff"/><rect x="1899.88" y="256.32" width="47.16" height="239.76"/><rect x="1981.65" y="256.32" width="47.16" height="239.76" fill="#fff"/><rect x="1981.65" y="256.32" width="47.16" height="239.76"/><path d="M2110.35,498.44c-19.76,0-34.62-4.8-44.2-14.24l0-.05c-9.57-9.56-14.44-23.71-14.44-42V433c0-18,5.86-31.21,17.42-39.37a42.78,42.78,0,0,1,11.58-5.6h-22.1V369.59a50.1,50.1,0,0,1,4.52-21.67,41.93,41.93,0,0,1,13.95-16.4c11.25-7.93,29.39-11.78,55.47-11.78h43.31c32.21,0,54.44,4.67,68,14.29,14.49,10.2,21.83,27.75,21.83,52.15v109.9h-47.15v-2.44a37.93,37.93,0,0,1-3.76,1.3c-8.27,2.35-20.17,3.5-36.38,3.5Zm21.87-73.71c-22.14,0-28.6,2.73-30.07,3.57-.81.48-3.31,1.91-3.31,9.7v5.43c0,7,2.49,8.47,3.43,9,2.31,1.37,8.3,3.65,22.75,3.65h43.9c27.25,0,38.82-2.25,43.74-4.13s5.8-4.19,5.8-7.81v-6.46c0-5.4-2-7.34-5.17-8.71l-.1,0c-3.56-1.58-13.32-4.23-38.69-4.23ZM2177,382.42c16.47,0,29.36,2,39.42,6.07.71.28,1.38.57,2.05.87v-6.85c0-11.91-4.33-14.54-5.74-15.4-3.12-1.89-12-5.06-36.46-5.06h-42.43c-19.55,0-24.55,2.67-25.35,3.21s-2.74,1.82-2.74,8.3v9.86c7.57-.67,16.17-1,25.89-1Z" fill="#fff"/><path d="M2110.35,498.44c-19.76,0-34.62-4.8-44.2-14.24l0-.05c-9.57-9.56-14.44-23.71-14.44-42V433c0-18,5.86-31.21,17.42-39.37a42.78,42.78,0,0,1,11.58-5.6h-22.1V369.59a50.1,50.1,0,0,1,4.52-21.67,41.93,41.93,0,0,1,13.95-16.4c11.25-7.93,29.39-11.78,55.47-11.78h43.31c32.21,0,54.44,4.67,68,14.29,14.49,10.2,21.83,27.75,21.83,52.15v109.9h-47.15v-2.44a37.93,37.93,0,0,1-3.76,1.3c-8.27,2.35-20.17,3.5-36.38,3.5Zm21.87-73.71c-22.14,0-28.6,2.73-30.07,3.57-.81.48-3.31,1.91-3.31,9.7v5.43c0,7,2.49,8.47,3.43,9,2.31,1.37,8.3,3.65,22.75,3.65h43.9c27.25,0,38.82-2.25,43.74-4.13s5.8-4.19,5.8-7.81v-6.46c0-5.4-2-7.34-5.17-8.71l-.1,0c-3.56-1.58-13.32-4.23-38.69-4.23ZM2177,382.42c16.47,0,29.36,2,39.42,6.07.71.28,1.38.57,2.05.87v-6.85c0-11.91-4.33-14.54-5.74-15.4-3.12-1.89-12-5.06-36.46-5.06h-42.43c-19.55,0-24.55,2.67-25.35,3.21s-2.74,1.82-2.74,8.3v9.86c7.57-.67,16.17-1,25.89-1Z"/><path d="M2291.86,496.08v-174h45.54v6.37c.49-.29,1-.57,1.48-.84,9.57-5.23,21.68-7.87,36-7.87h24.22c26.31,0,44.65,4.9,56.07,15,11.76,10.3,17.72,26.58,17.72,48.38v29.6h-45.56V394.25c0-20.29-4.28-25.61-5.59-26.75-1-.92-7.65-5.44-35.56-5.44h-16.3c-11,0-19,2.39-23.83,7.1s-7,11.14-7,20v107Z" fill="#fff"/><path d="M2291.86,496.08v-174h45.54v6.37c.49-.29,1-.57,1.48-.84,9.57-5.23,21.68-7.87,36-7.87h24.22c26.31,0,44.65,4.9,56.07,15,11.76,10.3,17.72,26.58,17.72,48.38v29.6h-45.56V394.25c0-20.29-4.28-25.61-5.59-26.75-1-.92-7.65-5.44-35.56-5.44h-16.3c-11,0-19,2.39-23.83,7.1s-7,11.14-7,20v107Z"/><path d="M2549.73,498.43c-26.09,0-44.15-4.44-55.24-13.6l0-.05c-11.5-9.62-17.33-24.62-17.33-44.58V420.73h22.18a36.41,36.41,0,0,1-5.61-4.19c-9.63-8.73-14.51-21.46-14.51-37.84V369c0-17.59,7.66-31,22.15-38.87,12.78-7,33.7-10.4,64-10.4h44.33c26.68,0,45.06,3.67,56.18,11.22a39.84,39.84,0,0,1,14,16.21,50.92,50.92,0,0,1,4.46,21.84v19h-43.54c14.24,1.74,25,5.66,32.77,11.82,11.44,9,17.23,23.55,17.23,43.13,0,9.55-1.68,18-5,25.15a43.16,43.16,0,0,1-15.85,18.29c-12.49,8.08-31.52,12-58.23,12Zm-23.12-46.28c1.89,1.49,6.9,4,19.31,4h60.92c23.79,0,31.32-2.35,33.44-3.36l0,0c2.95-1.38,3.27-8.29,3.27-11.2,0-4.8-.93-8.23-2.5-9.15s-7-3.09-22.81-3.09h-79.41a120.65,120.65,0,0,1-16.2-1v11.13c0,4.38.76,10.13,3.94,12.73m1.31-67.67c1,.54,5.52,2.5,19.9,2.5h73.84a164,164,0,0,1,17.08.82V377.38c0-6-1.11-10.32-3-11.83l-.12-.09c-1-.81-5.42-3.4-20.07-3.4h-58.14c-21.08,0-27.2,2.4-28.58,3.13l-.05,0c-.6.31-2.4,1.25-2.4,7.15V379c0,4.08,1.08,5.13,1.59,5.49" fill="#fff"/><path d="M2549.73,498.43c-26.09,0-44.15-4.44-55.24-13.6l0-.05c-11.5-9.62-17.33-24.62-17.33-44.58V420.73h22.18a36.41,36.41,0,0,1-5.61-4.19c-9.63-8.73-14.51-21.46-14.51-37.84V369c0-17.59,7.66-31,22.15-38.87,12.78-7,33.7-10.4,64-10.4h44.33c26.68,0,45.06,3.67,56.18,11.22a39.84,39.84,0,0,1,14,16.21,50.92,50.92,0,0,1,4.46,21.84v19h-43.54c14.24,1.74,25,5.66,32.77,11.82,11.44,9,17.23,23.55,17.23,43.13,0,9.55-1.68,18-5,25.15a43.16,43.16,0,0,1-15.85,18.29c-12.49,8.08-31.52,12-58.23,12Zm-23.12-46.28c1.89,1.49,6.9,4,19.31,4h60.92c23.79,0,31.32-2.35,33.44-3.36l0,0c2.95-1.38,3.27-8.29,3.27-11.2,0-4.8-.93-8.23-2.5-9.15s-7-3.09-22.81-3.09h-79.41a120.65,120.65,0,0,1-16.2-1v11.13C2522.72,443.8,2523.43,449.55,2526.61,452.15Zm1.31-67.67c1,.54,5.52,2.5,19.9,2.5h73.84a164,164,0,0,1,17.08.82V377.38c0-6-1.11-10.32-3-11.83l-.12-.09c-1-.81-5.42-3.4-20.07-3.4h-58.14c-21.08,0-27.2,2.4-28.58,3.13l-.05,0c-.6.31-2.4,1.25-2.4,7.15V379C2526.33,383.07,2527.41,384.12,2527.92,384.48Z"/><path d="M1037.86,138.62C1037.86,94,1049,59.45,1071,36c22.29-23.87,55.19-36,97.77-36h59.47c46.3,0,80.8,13,102.53,38.58,21.4,25.17,31.82,64.1,31.82,119v83.22c0,21.53-2.17,40.83-6.41,57.34-4.49,17.5-11.48,32.47-20.77,44.53-19.21,24.91-47.75,37.54-84.76,37.54h-29.25V297.43H1249c19.77,0,25.25-7.48,27-10l.1-.13c3.55-4.75,9.49-17.5,9.49-49.5V147.42c0-24-4.54-41-13.13-49.14S1247.39,85.7,1225,85.7h-51.74c-21.89,0-37,5.3-44.78,15.74-9,12-13.72,33.21-13.72,61.45v75.22c0,23.35,3.9,41.2,11.3,51.6,3.89,5.49,11.12,12.79,28.8,12.79h28.43v82.76h-30c-37.84,0-67-11.36-86.82-33.77-19.24-21.83-28.59-56.65-28.59-106.45Z" fill="#0fbcc1"/><path d="M1037.86,138.62C1037.86,94,1049,59.45,1071,36c22.29-23.87,55.19-36,97.77-36h59.47c46.3,0,80.8,13,102.53,38.58,21.4,25.17,31.82,64.1,31.82,119v83.22c0,21.53-2.17,40.83-6.41,57.34-4.49,17.5-11.48,32.47-20.77,44.53-19.21,24.91-47.75,37.54-84.76,37.54h-29.25V297.43H1249c19.77,0,25.25-7.48,27-10l.1-.13c3.55-4.75,9.49-17.5,9.49-49.5V147.42c0-24-4.54-41-13.13-49.14S1247.39,85.7,1225,85.7h-51.74c-21.89,0-37,5.3-44.78,15.74-9,12-13.72,33.21-13.72,61.45v75.22c0,23.35,3.9,41.2,11.3,51.6,3.89,5.49,11.12,12.79,28.8,12.79h28.43v82.76h-30c-37.84,0-67-11.36-86.82-33.77-19.24-21.83-28.59-56.65-28.59-106.45Z" fill="#a31e22"/><path d="M1362.56,672.63c0,44.65-11.14,79.18-33.11,102.66-22.29,23.86-55.19,36-97.77,36h-59.47c-46.31,0-80.8-13-102.53-38.59-21.4-25.17-31.82-64.09-31.82-119V570.49c0-21.53,2.17-40.84,6.41-57.35,4.49-17.5,11.48-32.46,20.77-44.52,19.21-24.91,47.74-37.54,84.76-37.54h29.25v82.75h-27.66c-19.76,0-25.24,7.48-27.05,9.95l-.09.14c-3.56,4.74-9.49,17.49-9.49,49.49v90.43c0,24,4.54,41,13.13,49.14s25.15,12.58,47.53,12.58h51.73c21.9,0,37-5.3,44.79-15.74,9-12,13.72-33.21,13.72-61.46V573.14c0-23.34-3.9-41.19-11.3-51.59-3.89-5.49-11.12-12.8-28.81-12.8h-28.42V426h30c37.85,0,67.06,11.35,86.83,33.77,19.24,21.83,28.58,56.64,28.58,106.45Z" fill="#a31e22"/></g></g></svg>